<svg id="Layer_1" data-name="Layer 1" xmlns="http://www.w3.org/2000/svg" viewBox="0 0 257.43 87.05"><defs><style>.cls-1{fill:#fff;}</style></defs><path class="cls-1" d="M43.53,25.54c-8.88,0-11.22,7.34-11.22,11.22V54.55a2.32,2.32,0,1,0,4.64,0V36.76c0-.68.18-6.58,6.58-6.58,1.08,0,6.5.32,6.57,6.58V54.55a2.33,2.33,0,1,0,4.65,0V36.76C54.75,32.88,52.4,25.54,43.53,25.54Z"/><path class="cls-1" d="M57.84,16.29a2.32,2.32,0,1,0-2.16,4.11A26.13,26.13,0,0,1,56,66.49a2.32,2.32,0,0,0,2.22,4.08,30.77,30.77,0,0,0-.35-54.28Z"/><path class="cls-1" d="M43.53,69.64a26.12,26.12,0,1,1,0-52.23,2.32,2.32,0,0,0,0-4.64,30.76,30.76,0,0,0,0,61.52,2.33,2.33,0,0,0,0-4.65Z"/><path class="cls-1" d="M43.53,82.41a38.89,38.89,0,1,1,0-77.77,2.32,2.32,0,0,0,0-4.64,43.53,43.53,0,1,0,0,87.05,2.32,2.32,0,0,0,0-4.64Z"/><path class="cls-1" d="M92.28,36a7.55,7.55,0,0,0-7.34,5.83l-.21,0H80.09a2.32,2.32,0,0,0,0,4.64h4.64a2.1,2.1,0,0,0,.56-.08,7.54,7.54,0,1,0,7-10.37Zm0,10.45a2.9,2.9,0,1,1,2.9-2.9A2.9,2.9,0,0,1,92.28,46.43Z"/><path class="cls-1" d="M23.74,41.79a2.32,2.32,0,1,0,0,4.64h2.32a2.32,2.32,0,1,0,0-4.64Z"/><path class="cls-1" d="M63.31,46.43a2.32,2.32,0,1,0,0-4.64H61a2.32,2.32,0,1,0,0,4.64Z"/><path class="cls-1" d="M118.16,10.39a.26.26,0,0,1,.17-.07h2.3a.24.24,0,0,1,.24.24v13.3a.24.24,0,0,1-.07.16.22.22,0,0,1-.17.07h-2.22a.29.29,0,0,1-.28-.15L113,15.52s-.05-.06-.08,0,0,0,0,.09l0,8.3a.2.2,0,0,1-.07.16.22.22,0,0,1-.17.07h-2.3a.23.23,0,0,1-.17-.07.23.23,0,0,1-.06-.16V10.56a.25.25,0,0,1,.06-.17.28.28,0,0,1,.17-.07h2.22a.29.29,0,0,1,.28.16L118,18.86s.06.06.08.05,0,0,0-.09l0-8.26A.26.26,0,0,1,118.16,10.39Z"/><path class="cls-1" d="M129.8,14.27a3.76,3.76,0,0,1,1.56,1.21,2.85,2.85,0,0,1,.56,1.71v6.67a.2.2,0,0,1-.07.16.22.22,0,0,1-.17.07h-2.3a.23.23,0,0,1-.17-.07.23.23,0,0,1-.06-.16v-.65a.09.09,0,0,0,0-.08.06.06,0,0,0-.08,0,3.14,3.14,0,0,1-2.66,1.08,3.88,3.88,0,0,1-2.48-.75,2.66,2.66,0,0,1-.94-2.2A2.82,2.82,0,0,1,124,19a4.79,4.79,0,0,1,3-.84h2a.09.09,0,0,0,.1-.1v-.43a1.28,1.28,0,0,0-.4-1,1.68,1.68,0,0,0-1.18-.36,2.19,2.19,0,0,0-1,.21A1,1,0,0,0,126,17a.23.23,0,0,1-.26.2l-2.38-.32c-.15,0-.23-.08-.21-.17a2.61,2.61,0,0,1,.66-1.5,3.81,3.81,0,0,1,1.53-1,5.81,5.81,0,0,1,2.13-.38A5.54,5.54,0,0,1,129.8,14.27Zm-1.24,7.46a1.41,1.41,0,0,0,.59-1.16v-.71c0-.06,0-.09-.1-.09h-1.42a2.53,2.53,0,0,0-1.39.33,1.08,1.08,0,0,0-.5.94,1,1,0,0,0,.38.84,1.55,1.55,0,0,0,1,.3A2.33,2.33,0,0,0,128.56,21.73Z"/><path class="cls-1" d="M139.78,16.14a.26.26,0,0,1-.17.07h-1.89c-.06,0-.1,0-.1.09v4.17a1.46,1.46,0,0,0,.27,1,1.05,1.05,0,0,0,.85.31h.65a.24.24,0,0,1,.17.07.22.22,0,0,1,.07.17v1.87a.24.24,0,0,1-.24.25c-.55,0-.94,0-1.18,0a4.4,4.4,0,0,1-2.43-.54,2.31,2.31,0,0,1-.83-2V16.3c0-.06,0-.09-.1-.09h-1.12a.26.26,0,0,1-.17-.07.28.28,0,0,1-.07-.17V14.22a.24.24,0,0,1,.24-.24h1.12c.07,0,.1,0,.1-.1V11.54a.24.24,0,0,1,.23-.23h2.21a.24.24,0,0,1,.23.23v2.34a.09.09,0,0,0,.1.1h1.89a.24.24,0,0,1,.24.24V16A.28.28,0,0,1,139.78,16.14Z"/><path class="cls-1" d="M142.29,12.4a1.55,1.55,0,0,1,1.12-2.67A1.49,1.49,0,0,1,145,11.29a1.58,1.58,0,0,1-2.67,1.11ZM142.06,24a.2.2,0,0,1-.07-.16V14.2a.22.22,0,0,1,.07-.17.24.24,0,0,1,.17-.07h2.3a.24.24,0,0,1,.16.07.22.22,0,0,1,.07.17v9.66a.24.24,0,0,1-.23.23h-2.3A.21.21,0,0,1,142.06,24Z"/><path class="cls-1" d="M149,23.38A4.32,4.32,0,0,1,147.34,21a7.05,7.05,0,0,1-.28-2,7.44,7.44,0,0,1,.28-2.09A4.24,4.24,0,0,1,149,14.65a4.82,4.82,0,0,1,2.83-.83,4.65,4.65,0,0,1,2.76.82,4.34,4.34,0,0,1,1.61,2.27,6.79,6.79,0,0,1,.32,2.07,7.09,7.09,0,0,1-.28,2,4.37,4.37,0,0,1-1.6,2.4,4.55,4.55,0,0,1-2.83.88A4.64,4.64,0,0,1,149,23.38Zm3.94-1.9a2.34,2.34,0,0,0,.65-1.08,6,6,0,0,0,.15-1.38,5.6,5.6,0,0,0-.15-1.4,2.27,2.27,0,0,0-.67-1,1.66,1.66,0,0,0-1.1-.37,1.68,1.68,0,0,0-1.12.37,2.13,2.13,0,0,0-.63,1,4.54,4.54,0,0,0-.16,1.4A5.54,5.54,0,0,0,150,20.4a2.36,2.36,0,0,0,.66,1.08,1.71,1.71,0,0,0,1.13.39A1.65,1.65,0,0,0,152.89,21.48Z"/><path class="cls-1" d="M166.48,14.79a3.53,3.53,0,0,1,1,2.61v6.46a.2.2,0,0,1-.07.16.21.21,0,0,1-.17.07h-2.3a.24.24,0,0,1-.23-.23V18a1.86,1.86,0,0,0-.44-1.28,1.65,1.65,0,0,0-2.35,0,1.86,1.86,0,0,0-.44,1.28v5.88a.24.24,0,0,1-.23.23h-2.3a.21.21,0,0,1-.17-.07.2.2,0,0,1-.07-.16V14.22a.22.22,0,0,1,.07-.17.24.24,0,0,1,.17-.07h2.3a.24.24,0,0,1,.16.07.22.22,0,0,1,.07.17v.69a.08.08,0,0,0,0,.08,0,0,0,0,0,.06,0,2.76,2.76,0,0,1,2.4-1.15A3.46,3.46,0,0,1,166.48,14.79Z"/><path class="cls-1" d="M176.14,14.27a3.76,3.76,0,0,1,1.56,1.21,2.85,2.85,0,0,1,.56,1.71v6.67a.2.2,0,0,1-.07.16.22.22,0,0,1-.17.07h-2.3a.23.23,0,0,1-.17-.07.23.23,0,0,1-.06-.16v-.65a.09.09,0,0,0,0-.08.06.06,0,0,0-.08,0,3.14,3.14,0,0,1-2.66,1.08,3.88,3.88,0,0,1-2.48-.75,2.66,2.66,0,0,1-.94-2.2A2.82,2.82,0,0,1,170.35,19a4.79,4.79,0,0,1,3-.84h2a.09.09,0,0,0,.1-.1v-.43a1.28,1.28,0,0,0-.4-1,1.68,1.68,0,0,0-1.18-.36,2.19,2.19,0,0,0-1,.21,1,1,0,0,0-.52.61.23.23,0,0,1-.26.2l-2.38-.32c-.15,0-.23-.08-.21-.17a2.61,2.61,0,0,1,.66-1.5,3.81,3.81,0,0,1,1.53-1,5.81,5.81,0,0,1,2.13-.38A5.54,5.54,0,0,1,176.14,14.27Zm-1.24,7.46a1.41,1.41,0,0,0,.59-1.16v-.71c0-.06,0-.09-.1-.09H174a2.53,2.53,0,0,0-1.39.33,1.08,1.08,0,0,0-.5.94,1,1,0,0,0,.38.84,1.55,1.55,0,0,0,1,.3A2.33,2.33,0,0,0,174.9,21.73Z"/><path class="cls-1" d="M180.67,24a.2.2,0,0,1-.07-.16V10.56a.22.22,0,0,1,.07-.17.24.24,0,0,1,.17-.07h2.3a.24.24,0,0,1,.16.07.22.22,0,0,1,.07.17v13.3a.24.24,0,0,1-.23.23h-2.3A.21.21,0,0,1,180.67,24Z"/><path class="cls-1" d="M192.44,23.65A4.34,4.34,0,0,1,190.65,22a4.89,4.89,0,0,1-.63-2.5V14.93a4.86,4.86,0,0,1,.63-2.5,4.25,4.25,0,0,1,1.79-1.67,5.76,5.76,0,0,1,2.69-.59,6,6,0,0,1,2.67.56,4.2,4.2,0,0,1,1.79,1.59,4.43,4.43,0,0,1,.64,2.39c0,.12-.08.19-.24.22l-2.3.13h0c-.13,0-.19-.07-.19-.21a2.25,2.25,0,0,0-.64-1.67,2.31,2.31,0,0,0-1.69-.63,2.33,2.33,0,0,0-1.7.63,2.25,2.25,0,0,0-.64,1.67v4.74a2.24,2.24,0,0,0,.64,1.65,2.33,2.33,0,0,0,1.7.63,2.31,2.31,0,0,0,1.69-.63,2.24,2.24,0,0,0,.64-1.65c0-.15.07-.22.23-.22l2.3.1a.25.25,0,0,1,.17.06.16.16,0,0,1,.07.14,4.49,4.49,0,0,1-.64,2.4,4.3,4.3,0,0,1-1.79,1.61,6,6,0,0,1-2.67.57A5.77,5.77,0,0,1,192.44,23.65Z"/><path class="cls-1" d="M211.48,19.67a.23.23,0,0,1-.26.23h-6.07c-.08,0-.11,0-.08.1a3.85,3.85,0,0,0,.21.79,2.07,2.07,0,0,0,2.09,1.1,2.37,2.37,0,0,0,2-1,.21.21,0,0,1,.17-.12.23.23,0,0,1,.14.08l1.42,1.39a.3.3,0,0,1,.09.18.37.37,0,0,1-.07.16,4.34,4.34,0,0,1-1.68,1.25,5.67,5.67,0,0,1-2.24.44,5.11,5.11,0,0,1-2.86-.77,4.23,4.23,0,0,1-1.68-2.14,6.7,6.7,0,0,1-.41-2.58,5.6,5.6,0,0,1,.29-1.91,4.33,4.33,0,0,1,1.58-2.22,4.45,4.45,0,0,1,2.69-.82A4.35,4.35,0,0,1,210,15a4.94,4.94,0,0,1,1.45,3A8.16,8.16,0,0,1,211.48,19.67Zm-6.29-2.3a3.84,3.84,0,0,0-.14.62c0,.07,0,.1.1.1h3.4c.08,0,.1,0,.08-.1-.07-.38-.1-.56-.1-.55a1.75,1.75,0,0,0-.62-.91,1.78,1.78,0,0,0-1.09-.32A1.56,1.56,0,0,0,205.19,17.37Z"/><path class="cls-1" d="M221.39,14.79a3.53,3.53,0,0,1,1,2.61v6.46a.24.24,0,0,1-.07.16.22.22,0,0,1-.17.07h-2.3a.22.22,0,0,1-.17-.07.24.24,0,0,1-.07-.16V18a1.81,1.81,0,0,0-.44-1.28,1.64,1.64,0,0,0-2.34,0,1.81,1.81,0,0,0-.44,1.28v5.88a.24.24,0,0,1-.07.16.22.22,0,0,1-.17.07h-2.3a.22.22,0,0,1-.17-.07.24.24,0,0,1-.07-.16V14.22a.24.24,0,0,1,.24-.24h2.3a.24.24,0,0,1,.24.24v.69a.08.08,0,0,0,0,.08s0,0,.06,0a2.74,2.74,0,0,1,2.4-1.15A3.44,3.44,0,0,1,221.39,14.79Z"/><path class="cls-1" d="M230.47,16.14a.26.26,0,0,1-.17.07h-1.89a.08.08,0,0,0-.09.09v4.17a1.46,1.46,0,0,0,.26,1,1.06,1.06,0,0,0,.86.31h.65a.24.24,0,0,1,.16.07.22.22,0,0,1,.07.17v1.87a.24.24,0,0,1-.23.25c-.56,0-1,0-1.18,0a4.41,4.41,0,0,1-2.44-.54,2.31,2.31,0,0,1-.83-2V16.3c0-.06,0-.09-.1-.09h-1.12a.24.24,0,0,1-.24-.24V14.22a.26.26,0,0,1,.07-.17.28.28,0,0,1,.17-.07h1.12c.07,0,.1,0,.1-.1V11.54a.2.2,0,0,1,.07-.16.21.21,0,0,1,.17-.07h2.2a.24.24,0,0,1,.24.23v2.34c0,.07,0,.1.09.1h1.89a.24.24,0,0,1,.24.24V16A.28.28,0,0,1,230.47,16.14Z"/><path class="cls-1" d="M238.76,14.12c.11.05.14.15.12.3l-.42,2.24c0,.16-.1.2-.27.14a2.09,2.09,0,0,0-.69-.1,2.72,2.72,0,0,0-.43,0,1.94,1.94,0,0,0-1.2.52,1.6,1.6,0,0,0-.49,1.23v5.37a.24.24,0,0,1-.07.16.22.22,0,0,1-.17.07h-2.3a.22.22,0,0,1-.17-.07.24.24,0,0,1-.07-.16V14.22a.24.24,0,0,1,.24-.24h2.3a.24.24,0,0,1,.24.24V15s0,.06,0,.07,0,0,.06,0a2.47,2.47,0,0,1,2.16-1.18A2,2,0,0,1,238.76,14.12Z"/><path class="cls-1" d="M249.3,19.67a.23.23,0,0,1-.25.23H243c-.08,0-.11,0-.08.1a3.34,3.34,0,0,0,.22.79,2.06,2.06,0,0,0,2.08,1.1,2.37,2.37,0,0,0,2-1,.21.21,0,0,1,.18-.12.24.24,0,0,1,.13.08l1.42,1.39a.33.33,0,0,1,.1.18.44.44,0,0,1-.08.16,4.3,4.3,0,0,1-1.67,1.25,5.68,5.68,0,0,1-2.25.44,5.13,5.13,0,0,1-2.86-.77,4.23,4.23,0,0,1-1.68-2.14,6.9,6.9,0,0,1-.41-2.58,5.85,5.85,0,0,1,.29-1.91,4.34,4.34,0,0,1,1.59-2.22,4.88,4.88,0,0,1,5.84.32,5,5,0,0,1,1.44,3A8.16,8.16,0,0,1,249.3,19.67ZM243,17.37a5.32,5.32,0,0,0-.14.62c0,.07,0,.1.1.1h3.4c.08,0,.11,0,.08-.1-.07-.38-.1-.56-.1-.55a1.7,1.7,0,0,0-.62-.91,1.76,1.76,0,0,0-1.09-.32A1.57,1.57,0,0,0,243,17.37Z"/><path class="cls-1" d="M111.64,47A4.34,4.34,0,0,1,110,44.63a6.83,6.83,0,0,1-.28-2,7,7,0,0,1,.28-2.08,4.22,4.22,0,0,1,1.63-2.29,4.82,4.82,0,0,1,2.83-.82,4.64,4.64,0,0,1,2.76.81,4.43,4.43,0,0,1,1.61,2.28,6.67,6.67,0,0,1,.31,2.06,7.09,7.09,0,0,1-.27,2A4.44,4.44,0,0,1,117.3,47a4.6,4.6,0,0,1-2.83.87A4.7,4.7,0,0,1,111.64,47Zm3.94-1.91a2.16,2.16,0,0,0,.64-1.08,5.45,5.45,0,0,0,.16-1.38,5.14,5.14,0,0,0-.16-1.4,2.17,2.17,0,0,0-.66-1,1.69,1.69,0,0,0-1.11-.37,1.67,1.67,0,0,0-1.11.37,2.15,2.15,0,0,0-.64,1,4.94,4.94,0,0,0-.15,1.4,5.54,5.54,0,0,0,.13,1.38,2.18,2.18,0,0,0,.66,1.08,1.71,1.71,0,0,0,1.13.39A1.65,1.65,0,0,0,115.58,45.08Z"/><path class="cls-1" d="M127,37.63a.23.23,0,0,1,.07.17v1.87a.22.22,0,0,1-.07.17.24.24,0,0,1-.16.07h-1.91c-.07,0-.1,0-.1.09v7.46a.22.22,0,0,1-.07.17.25.25,0,0,1-.17.06h-2.3a.27.27,0,0,1-.17-.06.25.25,0,0,1-.06-.17V40c0-.06,0-.09-.1-.09h-1.16a.26.26,0,0,1-.17-.07.22.22,0,0,1-.07-.17V37.8a.23.23,0,0,1,.07-.17.25.25,0,0,1,.17-.06H122a.09.09,0,0,0,.1-.1V37a3.94,3.94,0,0,1,.37-1.89,2.06,2.06,0,0,1,1.21-1,6.8,6.8,0,0,1,2.31-.24h.75a.24.24,0,0,1,.23.23v1.6a.24.24,0,0,1-.23.23h-.65a1.44,1.44,0,0,0-1,.29,1.39,1.39,0,0,0-.26,1v.22a.09.09,0,0,0,.1.1h1.91A.23.23,0,0,1,127,37.63Z"/><path class="cls-1" d="M143.08,36.24a.26.26,0,0,1-.17.07h-6.45c-.06,0-.1,0-.1.09v3.05a.09.09,0,0,0,.1.1h4.23a.24.24,0,0,1,.24.24V41.7a.2.2,0,0,1-.07.16.22.22,0,0,1-.17.07h-4.23a.09.09,0,0,0-.1.1v3.19a.09.09,0,0,0,.1.1h6.45a.25.25,0,0,1,.17.06.23.23,0,0,1,.07.17v1.91a.22.22,0,0,1-.07.17.25.25,0,0,1-.17.06h-9.08a.25.25,0,0,1-.17-.06.22.22,0,0,1-.07-.17V34.16a.2.2,0,0,1,.07-.16.22.22,0,0,1,.17-.07h9.08a.22.22,0,0,1,.17.07.2.2,0,0,1,.07.16v1.91A.22.22,0,0,1,143.08,36.24Z"/><path class="cls-1" d="M144.71,47.61a.21.21,0,0,1,0-.21l3.17-4.7a.09.09,0,0,0,0-.12l-3.17-4.7a.43.43,0,0,1,0-.14c0-.1.07-.15.2-.15h2.46a.29.29,0,0,1,.27.15l1.78,2.7c.05.08.09.08.13,0l1.77-2.7a.32.32,0,0,1,.28-.15h2.63c.1,0,.15,0,.18.08a.21.21,0,0,1,0,.21l-3.15,4.7a.24.24,0,0,0,0,.12l3.15,4.7a.21.21,0,0,1,0,.14q0,.15-.18.15h-2.47a.32.32,0,0,1-.28-.15l-1.77-2.7q-.06-.12-.12,0l-1.77,2.7a.31.31,0,0,1-.27.15H144.9A.2.2,0,0,1,144.71,47.61Z"/><path class="cls-1" d="M157.26,47.07a4.37,4.37,0,0,1-1.64-2.17,7.29,7.29,0,0,1-.33-2.32,7,7,0,0,1,.33-2.28,4.18,4.18,0,0,1,1.63-2.11,5.3,5.3,0,0,1,5.5,0,3.8,3.8,0,0,1,1.58,2,2.38,2.38,0,0,1,.16.71v0c0,.12-.06.19-.2.21L162,41.5h0a.24.24,0,0,1-.23-.2L161.7,41a1.51,1.51,0,0,0-.61-.85,1.92,1.92,0,0,0-1.12-.33,1.73,1.73,0,0,0-1.06.31,1.62,1.62,0,0,0-.61.87,4.65,4.65,0,0,0-.22,1.61,5.27,5.27,0,0,0,.2,1.61,1.66,1.66,0,0,0,.62.93,1.73,1.73,0,0,0,1.07.33,1.87,1.87,0,0,0,1.07-.32,1.69,1.69,0,0,0,.64-.9.27.27,0,0,0,0-.11.14.14,0,0,0,0-.06c0-.16.1-.23.27-.2l2.27.35a.21.21,0,0,1,.19.22,2.8,2.8,0,0,1-.12.59,3.66,3.66,0,0,1-1.6,2.07,5.11,5.11,0,0,1-2.74.74A4.76,4.76,0,0,1,157.26,47.07Z"/><path class="cls-1" d="M175.41,43.27a.24.24,0,0,1-.26.24h-6.08c-.08,0-.1,0-.08.09a3.72,3.72,0,0,0,.22.79,2.07,2.07,0,0,0,2.09,1.1,2.34,2.34,0,0,0,2-1,.21.21,0,0,1,.18-.12s.08,0,.14.08l1.41,1.4a.24.24,0,0,1,.1.17.32.32,0,0,1-.08.16,4.3,4.3,0,0,1-1.67,1.25,5.67,5.67,0,0,1-2.24.44,5.1,5.1,0,0,1-2.86-.76,4.3,4.3,0,0,1-1.68-2.15,6.62,6.62,0,0,1-.42-2.58,5.53,5.53,0,0,1,.3-1.9A4.35,4.35,0,0,1,168,38.23a4.43,4.43,0,0,1,2.69-.82,4.35,4.35,0,0,1,3.15,1.14,5,5,0,0,1,1.45,3.05A8.82,8.82,0,0,1,175.41,43.27Zm-6.3-2.3a3.84,3.84,0,0,0-.13.63c0,.06,0,.1.09.1h3.41c.08,0,.1,0,.08-.1-.07-.38-.1-.57-.1-.55a1.74,1.74,0,0,0-.62-.92,1.85,1.85,0,0,0-1.09-.32A1.57,1.57,0,0,0,169.11,41Z"/><path class="cls-1" d="M177.58,47.63a.22.22,0,0,1-.07-.17V34.16a.2.2,0,0,1,.07-.16.22.22,0,0,1,.17-.07h2.3a.22.22,0,0,1,.17.07.23.23,0,0,1,.06.16v13.3a.21.21,0,0,1-.23.23h-2.3A.25.25,0,0,1,177.58,47.63Z"/><path class="cls-1" d="M182.77,47.63a.26.26,0,0,1-.07-.17V34.16a.24.24,0,0,1,.07-.16.22.22,0,0,1,.17-.07h2.3a.22.22,0,0,1,.17.07.24.24,0,0,1,.07.16v13.3a.26.26,0,0,1-.07.17.25.25,0,0,1-.17.06h-2.3A.25.25,0,0,1,182.77,47.63Z"/><path class="cls-1" d="M196.92,43.27a.22.22,0,0,1-.25.24h-6.08c-.08,0-.1,0-.08.09a3.21,3.21,0,0,0,.22.79,2.06,2.06,0,0,0,2.08,1.1,2.36,2.36,0,0,0,2-1,.21.21,0,0,1,.18-.12s.08,0,.14.08l1.41,1.4a.24.24,0,0,1,.1.17.44.44,0,0,1-.08.16,4.3,4.3,0,0,1-1.67,1.25,5.67,5.67,0,0,1-2.24.44,5.08,5.08,0,0,1-2.86-.76,4.26,4.26,0,0,1-1.69-2.15,6.83,6.83,0,0,1-.41-2.58,5.53,5.53,0,0,1,.3-1.9,4.3,4.3,0,0,1,1.58-2.23,4.88,4.88,0,0,1,5.84.32,5,5,0,0,1,1.45,3.05A8.87,8.87,0,0,1,196.92,43.27ZM190.63,41a5.09,5.09,0,0,0-.14.63.09.09,0,0,0,.1.1H194c.08,0,.11,0,.08-.1-.06-.38-.1-.57-.1-.55a1.64,1.64,0,0,0-.62-.92,1.81,1.81,0,0,0-1.09-.32A1.57,1.57,0,0,0,190.63,41Z"/><path class="cls-1" d="M206.84,38.39a3.55,3.55,0,0,1,1,2.62v6.45a.22.22,0,0,1-.07.17.24.24,0,0,1-.17.06h-2.3a.23.23,0,0,1-.16-.06.22.22,0,0,1-.07-.17V41.58a1.82,1.82,0,0,0-.45-1.28,1.48,1.48,0,0,0-1.17-.49,1.5,1.5,0,0,0-1.17.49,1.86,1.86,0,0,0-.44,1.28v5.88a.22.22,0,0,1-.07.17.23.23,0,0,1-.16.06h-2.31a.23.23,0,0,1-.16-.06.22.22,0,0,1-.07-.17V37.82a.23.23,0,0,1,.07-.17.23.23,0,0,1,.16-.06h2.31a.23.23,0,0,1,.16.06.23.23,0,0,1,.07.17v.69s0,.07,0,.08,0,0,.06,0a2.75,2.75,0,0,1,2.4-1.14A3.45,3.45,0,0,1,206.84,38.39Z"/><path class="cls-1" d="M211.84,47.07a4.37,4.37,0,0,1-1.64-2.17,7.29,7.29,0,0,1-.33-2.32,7,7,0,0,1,.33-2.28,4.18,4.18,0,0,1,1.63-2.11,5.3,5.3,0,0,1,5.5,0,3.8,3.8,0,0,1,1.58,2,2.38,2.38,0,0,1,.16.71v0c0,.12-.06.19-.2.21l-2.26.34h0a.24.24,0,0,1-.23-.2l-.06-.31a1.51,1.51,0,0,0-.61-.85,1.92,1.92,0,0,0-1.12-.33,1.73,1.73,0,0,0-1.06.31,1.62,1.62,0,0,0-.61.87,4.65,4.65,0,0,0-.22,1.61,5.27,5.27,0,0,0,.2,1.61,1.66,1.66,0,0,0,.62.93,1.73,1.73,0,0,0,1.07.33,1.87,1.87,0,0,0,1.07-.32,1.69,1.69,0,0,0,.64-.9.27.27,0,0,0,0-.11.14.14,0,0,0,0-.06c0-.16.1-.23.27-.2l2.27.35a.21.21,0,0,1,.19.22,2.8,2.8,0,0,1-.12.59,3.66,3.66,0,0,1-1.6,2.07,5.11,5.11,0,0,1-2.74.74A4.76,4.76,0,0,1,211.84,47.07Z"/><path class="cls-1" d="M230,43.27a.24.24,0,0,1-.26.24h-6.08c-.07,0-.1,0-.07.09a3.18,3.18,0,0,0,.21.79,2.07,2.07,0,0,0,2.09,1.1,2.34,2.34,0,0,0,2-1,.21.21,0,0,1,.18-.12s.08,0,.14.08l1.41,1.4a.24.24,0,0,1,.1.17.32.32,0,0,1-.08.16,4.3,4.3,0,0,1-1.67,1.25,5.67,5.67,0,0,1-2.24.44,5.1,5.1,0,0,1-2.86-.76,4.3,4.3,0,0,1-1.68-2.15,6.62,6.62,0,0,1-.42-2.58,5.53,5.53,0,0,1,.3-1.9,4.35,4.35,0,0,1,1.58-2.23,4.43,4.43,0,0,1,2.69-.82,4.35,4.35,0,0,1,3.15,1.14,5,5,0,0,1,1.45,3.05A8.82,8.82,0,0,1,230,43.27Zm-6.3-2.3a3.84,3.84,0,0,0-.13.63c0,.06,0,.1.09.1h3.41c.08,0,.1,0,.08-.1-.07-.38-.1-.57-.1-.55a1.74,1.74,0,0,0-.62-.92,1.85,1.85,0,0,0-1.09-.32A1.57,1.57,0,0,0,223.69,41Z"/><path class="cls-1" d="M110.56,64.76a1.88,1.88,0,0,1-.79-.74,2.13,2.13,0,0,1-.28-1.11V60.69a2.13,2.13,0,0,1,.28-1.11,2,2,0,0,1,.79-.74,2.83,2.83,0,0,1,2.37,0,1.81,1.81,0,0,1,.79.71,2,2,0,0,1,.28,1.06.13.13,0,0,1,0,.08.11.11,0,0,1-.08,0l-.83,0c-.07,0-.1,0-.1-.1a1.13,1.13,0,0,0-.33-.85,1.34,1.34,0,0,0-1.76,0,1.14,1.14,0,0,0-.34.85V63a1.11,1.11,0,0,0,.34.84,1.18,1.18,0,0,0,.88.33,1.22,1.22,0,0,0,.88-.32A1.13,1.13,0,0,0,113,63c0-.07,0-.1.1-.1l.83,0a.11.11,0,0,1,.08,0,.09.09,0,0,1,0,.06,2,2,0,0,1-.28,1.08,1.9,1.9,0,0,1-.79.72,2.76,2.76,0,0,1-1.18.25A2.52,2.52,0,0,1,110.56,64.76Z"/><path class="cls-1" d="M117.54,64.92a.13.13,0,0,1,0-.08V62.43s0,0,0-.06l-1.85-3.59a.06.06,0,0,1,0-.05s0-.07.1-.07h.89a.11.11,0,0,1,.12.08L118,61.25a0,0,0,0,0,.06,0l1.27-2.51a.12.12,0,0,1,.12-.08h.9a.11.11,0,0,1,.09,0,.1.1,0,0,1,0,.09l-1.86,3.59s0,0,0,.06v2.41a.13.13,0,0,1,0,.08.09.09,0,0,1-.07,0h-.83A.11.11,0,0,1,117.54,64.92Z"/><path class="cls-1" d="M125.91,61.72a1.53,1.53,0,0,1,.92,1.49,1.56,1.56,0,0,1-.58,1.3,2.32,2.32,0,0,1-1.49.45h-2.27a.13.13,0,0,1-.07,0,.09.09,0,0,1,0-.07V58.76a.09.09,0,0,1,0-.07.11.11,0,0,1,.07,0h2.2a2.36,2.36,0,0,1,1.51.42,1.52,1.52,0,0,1,.54,1.28,1.33,1.33,0,0,1-.83,1.31S125.87,61.71,125.91,61.72Zm-2.48-2.12v1.67s0,0,0,0h1.21a1.14,1.14,0,0,0,.75-.23.75.75,0,0,0,.28-.63.81.81,0,0,0-.28-.66,1.14,1.14,0,0,0-.75-.23h-1.21S123.43,59.57,123.43,59.6Zm2.08,4.19a.87.87,0,0,0,.27-.68.88.88,0,0,0-.28-.69,1.12,1.12,0,0,0-.76-.25h-1.26a0,0,0,0,0,0,0V64a0,0,0,0,0,0,0h1.28A1.07,1.07,0,0,0,125.51,63.79Z"/><path class="cls-1" d="M133.3,59.52a.09.09,0,0,1-.08,0h-3.06s0,0,0,0v1.68s0,0,0,0h2.06a.11.11,0,0,1,.07,0,.11.11,0,0,1,0,.08v.68a.11.11,0,0,1,0,.08.11.11,0,0,1-.07,0h-2.06s0,0,0,0V64s0,0,0,0h3.06a.11.11,0,0,1,.08,0,.09.09,0,0,1,0,.07v.69a.09.09,0,0,1,0,.07.12.12,0,0,1-.08,0h-4.05a.1.1,0,0,1-.07,0,.09.09,0,0,1,0-.07V58.76a.1.1,0,0,1,.1-.1h4.05a.11.11,0,0,1,.08,0,.09.09,0,0,1,0,.07v.69A.09.09,0,0,1,133.3,59.52Z"/><path class="cls-1" d="M138.89,64.87l-1.19-2.59a.07.07,0,0,0-.06,0h-1.08s0,0,0,0v2.56a.09.09,0,0,1,0,.07.12.12,0,0,1-.08,0h-.83s-.05,0-.08,0a.09.09,0,0,1,0-.07V58.76a.09.09,0,0,1,0-.07.13.13,0,0,1,.08,0h2.48a1.93,1.93,0,0,1,1,.23,1.63,1.63,0,0,1,.66.64,2,2,0,0,1,.23,1,1.75,1.75,0,0,1-.32,1.06,1.68,1.68,0,0,1-.89.61s0,0,0,0,0,0,0,0L140,64.83a.11.11,0,0,1,0,0c0,.05,0,.08-.1.08H139A.12.12,0,0,1,138.89,64.87Zm-2.37-5.27v1.79s0,0,0,0h1.35a1,1,0,0,0,.7-.26,1,1,0,0,0,0-1.36.94.94,0,0,0-.7-.26h-1.35S136.52,59.57,136.52,59.6Z"/><path class="cls-1" d="M142.88,64.8a1.77,1.77,0,0,1-.8-.63,1.62,1.62,0,0,1-.29-1V63a.09.09,0,0,1,0-.07.11.11,0,0,1,.08,0h.8a.11.11,0,0,1,.08,0,.09.09,0,0,1,0,.07v.17a.81.81,0,0,0,.37.69,1.6,1.6,0,0,0,1,.28,1.22,1.22,0,0,0,.82-.24.72.72,0,0,0,.28-.6.64.64,0,0,0-.15-.43,1.61,1.61,0,0,0-.44-.32c-.19-.09-.47-.21-.85-.36a7.72,7.72,0,0,1-1-.44,1.71,1.71,0,0,1-.66-.56,1.43,1.43,0,0,1-.27-.89,1.51,1.51,0,0,1,.58-1.25,2.4,2.4,0,0,1,1.53-.46,2.82,2.82,0,0,1,1.2.24,1.85,1.85,0,0,1,.8.65,1.61,1.61,0,0,1,.29,1v.15a.1.1,0,0,1-.11.11h-.81a.09.09,0,0,1-.07,0,.12.12,0,0,1,0-.08v-.1a.88.88,0,0,0-.34-.71,1.42,1.42,0,0,0-1-.3,1.24,1.24,0,0,0-.77.21.7.7,0,0,0-.27.59.65.65,0,0,0,.14.44,1.54,1.54,0,0,0,.43.31c.19.09.49.21.89.35a10.54,10.54,0,0,1,1,.44,2,2,0,0,1,.65.56,1.4,1.4,0,0,1,.28.88,1.57,1.57,0,0,1-.6,1.29,2.56,2.56,0,0,1-1.64.48A3.09,3.09,0,0,1,142.88,64.8Z"/><path class="cls-1" d="M152.7,59.52a.08.08,0,0,1-.07,0h-3.07s-.05,0-.05,0v1.68a0,0,0,0,0,.05,0h2.06a.13.13,0,0,1,.08,0,.11.11,0,0,1,0,.08v.68a.11.11,0,0,1,0,.08.13.13,0,0,1-.08,0h-2.06s-.05,0-.05,0V64a0,0,0,0,0,.05,0h3.07a.09.09,0,0,1,.07,0,.08.08,0,0,1,0,.07v.69a.08.08,0,0,1,0,.07.1.1,0,0,1-.07,0h-4a.12.12,0,0,1-.08,0,.09.09,0,0,1,0-.07V58.76a.09.09,0,0,1,0-.07.11.11,0,0,1,.08,0h4a.09.09,0,0,1,.07,0,.08.08,0,0,1,0,.07v.69A.08.08,0,0,1,152.7,59.52Z"/><path class="cls-1" d="M155.8,64.76A1.85,1.85,0,0,1,155,64a2.23,2.23,0,0,1-.28-1.11V60.69a2.23,2.23,0,0,1,.28-1.11,1.91,1.91,0,0,1,.8-.74,2.81,2.81,0,0,1,2.36,0,1.76,1.76,0,0,1,.79.71,2,2,0,0,1,.28,1.06.13.13,0,0,1,0,.08.09.09,0,0,1-.07,0l-.83,0c-.07,0-.11,0-.11-.1a1.13,1.13,0,0,0-.33-.85,1.18,1.18,0,0,0-.88-.33,1.2,1.2,0,0,0-.88.33,1.13,1.13,0,0,0-.33.85V63a1.11,1.11,0,0,0,.33.84,1.2,1.2,0,0,0,.88.33,1.22,1.22,0,0,0,.88-.32,1.13,1.13,0,0,0,.33-.85c0-.07,0-.1.11-.1l.83,0a.08.08,0,0,1,.07,0,.09.09,0,0,1,0,.06,2,2,0,0,1-.28,1.08,1.84,1.84,0,0,1-.79.72A2.73,2.73,0,0,1,157,65,2.48,2.48,0,0,1,155.8,64.76Z"/><path class="cls-1" d="M162.46,64.77a1.87,1.87,0,0,1-.8-.75,2.13,2.13,0,0,1-.28-1.11V58.76a.1.1,0,0,1,.1-.1h.83a.11.11,0,0,1,.08,0,.09.09,0,0,1,0,.07v4.17a1.17,1.17,0,0,0,.33.86,1.32,1.32,0,0,0,1.77,0,1.17,1.17,0,0,0,.33-.86V58.76a.09.09,0,0,1,0-.07.11.11,0,0,1,.08,0h.83a.1.1,0,0,1,.1.1v4.15a2.13,2.13,0,0,1-.28,1.11,1.85,1.85,0,0,1-.79.75,2.63,2.63,0,0,1-1.18.26A2.6,2.6,0,0,1,162.46,64.77Z"/><path class="cls-1" d="M171.65,64.87l-1.19-2.59a.07.07,0,0,0-.06,0h-1.08s0,0,0,0v2.56a.09.09,0,0,1,0,.07.12.12,0,0,1-.08,0h-.83s-.05,0-.08,0a.09.09,0,0,1,0-.07V58.76a.09.09,0,0,1,0-.07.13.13,0,0,1,.08,0h2.48a1.93,1.93,0,0,1,1,.23,1.63,1.63,0,0,1,.66.64,2,2,0,0,1,.23,1,1.75,1.75,0,0,1-.32,1.06,1.68,1.68,0,0,1-.89.61s0,0,0,0,0,0,0,0l1.27,2.62a.11.11,0,0,1,0,0c0,.05,0,.08-.1.08h-.86A.12.12,0,0,1,171.65,64.87Zm-2.37-5.27v1.79s0,0,0,0h1.35a1,1,0,0,0,.7-.26,1,1,0,0,0,0-1.36.94.94,0,0,0-.7-.26h-1.35S169.28,59.57,169.28,59.6Z"/><path class="cls-1" d="M174.86,64.92a.09.09,0,0,1,0-.07V58.76a.09.09,0,0,1,0-.07.11.11,0,0,1,.08,0h.83a.1.1,0,0,1,.1.1v6.09a.09.09,0,0,1,0,.07.1.1,0,0,1-.07,0h-.83A.12.12,0,0,1,174.86,64.92Z"/><path class="cls-1" d="M182.48,58.69a.1.1,0,0,1,0,.07v.7a.15.15,0,0,1-.11.11h-1.66s0,0,0,0v5.24a.08.08,0,0,1,0,.07.1.1,0,0,1-.07,0h-.83s-.05,0-.08,0a.09.09,0,0,1,0-.07V59.61s0,0,0,0H178a.1.1,0,0,1-.07,0,.09.09,0,0,1,0-.07v-.7a.1.1,0,0,1,.1-.1h4.39A.09.09,0,0,1,182.48,58.69Z"/><path class="cls-1" d="M186.1,64.92a.13.13,0,0,1,0-.08V62.43s0,0,0-.06l-1.85-3.59a.17.17,0,0,1,0-.05s0-.07.1-.07h.89a.13.13,0,0,1,.13.08l1.26,2.51s0,0,.05,0l1.27-2.51a.12.12,0,0,1,.12-.08h.9q.08,0,.09,0a.1.1,0,0,1,0,.09l-1.86,3.59s0,0,0,.06v2.41a.13.13,0,0,1,0,.08.09.09,0,0,1-.07,0h-.83A.11.11,0,0,1,186.1,64.92Z"/><path class="cls-1" d="M198.13,58.69a.09.09,0,0,1,0,.07v.7a.09.09,0,0,1,0,.07.12.12,0,0,1-.08,0h-1.66s0,0,0,0v5.24a.09.09,0,0,1,0,.07.12.12,0,0,1-.08,0h-.83a.1.1,0,0,1-.07,0,.09.09,0,0,1,0-.07V59.61s0,0-.05,0h-1.59a.12.12,0,0,1-.08,0,.09.09,0,0,1,0-.07v-.7a.09.09,0,0,1,0-.07.11.11,0,0,1,.08,0h4.38A.11.11,0,0,1,198.13,58.69Z"/><path class="cls-1" d="M204.44,59.52a.1.1,0,0,1-.08,0h-3.07s0,0,0,0v1.68a0,0,0,0,0,0,0h2.06a.1.1,0,0,1,.11.11v.68a.1.1,0,0,1-.11.11h-2.06s0,0,0,0V64a0,0,0,0,0,0,0h3.07a.13.13,0,0,1,.08,0,.09.09,0,0,1,0,.07v.69a.09.09,0,0,1,0,.07s-.05,0-.08,0h-4.05a.12.12,0,0,1-.08,0,.09.09,0,0,1,0-.07V58.76a.09.09,0,0,1,0-.07.11.11,0,0,1,.08,0h4.05a.13.13,0,0,1,.08,0,.09.09,0,0,1,0,.07v.69A.09.09,0,0,1,204.44,59.52Z"/><path class="cls-1" d="M207.53,64.76a1.77,1.77,0,0,1-.79-.74,2.13,2.13,0,0,1-.28-1.11V60.69a2.13,2.13,0,0,1,.28-1.11,1.83,1.83,0,0,1,.79-.74,2.81,2.81,0,0,1,2.36,0,1.79,1.79,0,0,1,.8.71,2,2,0,0,1,.27,1.06.13.13,0,0,1,0,.08.09.09,0,0,1-.07,0l-.83,0c-.07,0-.11,0-.11-.1a1.13,1.13,0,0,0-.33-.85,1.18,1.18,0,0,0-.88-.33,1.2,1.2,0,0,0-.88.33,1.13,1.13,0,0,0-.33.85V63a1.11,1.11,0,0,0,.33.84,1.2,1.2,0,0,0,.88.33,1.22,1.22,0,0,0,.88-.32,1.13,1.13,0,0,0,.33-.85c0-.07,0-.1.11-.1l.83,0a.08.08,0,0,1,.07,0,.09.09,0,0,1,0,.06,2.11,2.11,0,0,1-.27,1.08,1.87,1.87,0,0,1-.8.72,2.73,2.73,0,0,1-1.18.25A2.48,2.48,0,0,1,207.53,64.76Z"/><path class="cls-1" d="M216.62,58.69a.11.11,0,0,1,.08,0h.83a.1.1,0,0,1,.1.1v6.09a.09.09,0,0,1,0,.07.1.1,0,0,1-.07,0h-.83a.12.12,0,0,1-.08,0,.09.09,0,0,1,0-.07V62.27s0,0-.05,0h-2.29s-.05,0-.05,0v2.58a.09.09,0,0,1,0,.07.1.1,0,0,1-.07,0h-.83a.12.12,0,0,1-.08,0,.09.09,0,0,1,0-.07V58.76a.09.09,0,0,1,0-.07.11.11,0,0,1,.08,0h.83a.1.1,0,0,1,.1.1v2.52a0,0,0,0,0,.05,0h2.29s.05,0,.05,0V58.76A.09.09,0,0,1,216.62,58.69Z"/><path class="cls-1" d="M223.67,58.69a.09.09,0,0,1,.07,0h.83a.11.11,0,0,1,.08,0,.09.09,0,0,1,0,.07v6.09a.09.09,0,0,1,0,.07.12.12,0,0,1-.08,0h-.8a.12.12,0,0,1-.12-.08l-2.6-4.24,0,0s0,0,0,0l0,4.2a.09.09,0,0,1,0,.07.12.12,0,0,1-.08,0h-.83s-.05,0-.08,0a.09.09,0,0,1,0-.07V58.76a.09.09,0,0,1,0-.07.13.13,0,0,1,.08,0h.8a.13.13,0,0,1,.13.07L223.59,63l0,0a.05.05,0,0,0,0,0v-4.2A.09.09,0,0,1,223.67,58.69Z"/><path class="cls-1" d="M228,64.77a1.91,1.91,0,0,1-.81-.78,2.4,2.4,0,0,1-.28-1.16v-2a2.31,2.31,0,0,1,.29-1.15,2,2,0,0,1,.8-.77,2.71,2.71,0,0,1,2.4,0,2,2,0,0,1,.8.77,2.21,2.21,0,0,1,.29,1.15v2a2.2,2.2,0,0,1-.29,1.16,1.94,1.94,0,0,1-.8.78,2.71,2.71,0,0,1-2.4,0Zm2.11-1a1.29,1.29,0,0,0,.34-.92v-2.1a1.34,1.34,0,0,0-.34-.94,1.24,1.24,0,0,0-.91-.35,1.21,1.21,0,0,0-.9.35,1.29,1.29,0,0,0-.34.94v2.1a1.25,1.25,0,0,0,.34.92,1.18,1.18,0,0,0,.9.36A1.21,1.21,0,0,0,230.12,63.79Z"/><path class="cls-1" d="M233.77,64.92a.09.09,0,0,1,0-.07V58.76a.09.09,0,0,1,0-.07.13.13,0,0,1,.08,0h.83a.11.11,0,0,1,.08,0,.09.09,0,0,1,0,.07V64s0,0,0,0h3a.09.09,0,0,1,.07,0,.1.1,0,0,1,0,.07v.69a.15.15,0,0,1-.11.11h-4S233.8,64.94,233.77,64.92Z"/><path class="cls-1" d="M240.84,64.77A1.94,1.94,0,0,1,240,64a2.29,2.29,0,0,1-.29-1.16v-2a2.31,2.31,0,0,1,.29-1.15,2,2,0,0,1,.81-.77,2.69,2.69,0,0,1,2.39,0,1.94,1.94,0,0,1,.81.77,2.31,2.31,0,0,1,.29,1.15v2a2.29,2.29,0,0,1-.29,1.16,1.91,1.91,0,0,1-.81.78,2.53,2.53,0,0,1-1.2.28A2.59,2.59,0,0,1,240.84,64.77Zm2.11-1a1.25,1.25,0,0,0,.34-.92v-2.1a1.29,1.29,0,0,0-.34-.94,1.35,1.35,0,0,0-1.81,0,1.29,1.29,0,0,0-.34.94v2.1a1.25,1.25,0,0,0,.34.92,1.32,1.32,0,0,0,1.81,0Z"/><path class="cls-1" d="M247.49,64.76a1.9,1.9,0,0,1-.79-.75,2.23,2.23,0,0,1-.28-1.11V60.72a2.24,2.24,0,0,1,.28-1.12,2,2,0,0,1,.79-.75,2.54,2.54,0,0,1,1.19-.27,2.6,2.6,0,0,1,1.18.26,2,2,0,0,1,.79.72,1.91,1.91,0,0,1,.27,1v.08a.11.11,0,0,1,0,.07.09.09,0,0,1-.07,0H250a.11.11,0,0,1-.08,0,.11.11,0,0,1,0-.07v0a1.06,1.06,0,0,0-.33-.8,1.22,1.22,0,0,0-.88-.32,1.2,1.2,0,0,0-.88.33,1.18,1.18,0,0,0-.33.87v2.25a1.12,1.12,0,0,0,.35.87,1.27,1.27,0,0,0,.91.33,1.22,1.22,0,0,0,.85-.29,1,1,0,0,0,.31-.77v-.56a0,0,0,0,0,0,0h-1.1a.11.11,0,0,1-.08,0,.11.11,0,0,1,0-.07v-.67a.1.1,0,0,1,.11-.11h2.08a.09.09,0,0,1,.07,0,.11.11,0,0,1,0,.08v1.15a2.12,2.12,0,0,1-.6,1.61,2.27,2.27,0,0,1-1.64.58A2.54,2.54,0,0,1,247.49,64.76Z"/><path class="cls-1" d="M254.52,64.92a.13.13,0,0,1,0-.08V62.43s0,0,0-.06l-1.85-3.59a.06.06,0,0,1,0-.05s0-.07.1-.07h.89a.11.11,0,0,1,.12.08L255,61.25a0,0,0,0,0,.06,0l1.27-2.51a.12.12,0,0,1,.12-.08h.9a.12.12,0,0,1,.09,0,.1.1,0,0,1,0,.09l-1.86,3.59s0,0,0,.06v2.41a.13.13,0,0,1,0,.08.11.11,0,0,1-.08,0h-.82A.11.11,0,0,1,254.52,64.92Z"/><path class="cls-1" d="M113.43,77.67l-.29-1s0,0,0,0h-2.38a.05.05,0,0,0,0,0l-.3,1a.11.11,0,0,1-.12.09h-.89a.13.13,0,0,1-.09,0,.09.09,0,0,1,0-.09l2-6.08a.11.11,0,0,1,.11-.09h1.13a.12.12,0,0,1,.12.09l2,6.08a.06.06,0,0,1,0,0c0,.06,0,.09-.1.09h-.9A.12.12,0,0,1,113.43,77.67ZM111,75.85h1.82s0,0,0-.06l-.93-3s0,0,0,0,0,0,0,0l-.92,3S111,75.85,111,75.85Z"/><path class="cls-1" d="M120.25,71.49a.11.11,0,0,1,.08,0h.83a.11.11,0,0,1,.07,0,.09.09,0,0,1,0,.07v6.09a.09.09,0,0,1,0,.07.13.13,0,0,1-.07,0h-.81a.12.12,0,0,1-.12-.08l-2.59-4.24,0,0a.05.05,0,0,0,0,0l0,4.2a.09.09,0,0,1,0,.07.12.12,0,0,1-.08,0h-.83a.1.1,0,0,1-.07,0,.09.09,0,0,1,0-.07V71.56a.1.1,0,0,1,.1-.1h.81a.12.12,0,0,1,.12.07l2.58,4.25,0,0a.05.05,0,0,0,0,0v-4.2A.09.09,0,0,1,120.25,71.49Z"/><path class="cls-1" d="M123.61,77.72s0,0,0-.07V71.56s0,0,0-.07a.09.09,0,0,1,.07,0h2.2a2.6,2.6,0,0,1,1.12.22,1.71,1.71,0,0,1,.76.64,1.86,1.86,0,0,1,.26,1v2.61a1.86,1.86,0,0,1-.26,1,1.71,1.71,0,0,1-.76.64,2.6,2.6,0,0,1-1.12.23h-2.2A.1.1,0,0,1,123.61,77.72Zm1-.86h1.26a1,1,0,0,0,.76-.31,1.17,1.17,0,0,0,.3-.8V73.47a1.13,1.13,0,0,0-.29-.81,1,1,0,0,0-.78-.3h-1.25s0,0,0,0v4.41S124.63,76.86,124.66,76.86Z"/><path class="cls-1" d="M137.33,72.32a.08.08,0,0,1-.07,0h-3.07s-.05,0-.05,0v1.68a0,0,0,0,0,.05,0h2.06a.13.13,0,0,1,.08,0,.19.19,0,0,1,0,.08v.68a.19.19,0,0,1,0,.08.13.13,0,0,1-.08,0h-2.06s-.05,0-.05,0v1.74a0,0,0,0,0,.05,0h3.07a.1.1,0,0,1,.1.1v.69a.09.09,0,0,1,0,.07.1.1,0,0,1-.07,0h-4a.12.12,0,0,1-.08,0,.09.09,0,0,1,0-.07V71.56a.09.09,0,0,1,0-.07.11.11,0,0,1,.08,0h4a.1.1,0,0,1,.1.1v.69A.09.09,0,0,1,137.33,72.32Z"/><path class="cls-1" d="M143.2,71.49a.11.11,0,0,1,.08,0h.82a.1.1,0,0,1,.08,0,.09.09,0,0,1,0,.07v6.09a.09.09,0,0,1,0,.07.1.1,0,0,1-.08,0h-.8a.12.12,0,0,1-.12-.08l-2.59-4.24,0,0a.05.05,0,0,0,0,0l0,4.2a.09.09,0,0,1,0,.07.12.12,0,0,1-.08,0h-.83a.1.1,0,0,1-.07,0,.09.09,0,0,1,0-.07V71.56a.1.1,0,0,1,.1-.1h.8c.07,0,.11,0,.13.07l2.58,4.25,0,0a.05.05,0,0,0,0,0v-4.2A.09.09,0,0,1,143.2,71.49Z"/><path class="cls-1" d="M150.82,71.49a.09.09,0,0,1,0,.07v.7a.1.1,0,0,1-.1.1h-1.66s0,0,0,0v5.24a.08.08,0,0,1,0,.07.1.1,0,0,1-.07,0h-.83a.12.12,0,0,1-.08,0,.09.09,0,0,1,0-.07V72.41s0,0,0,0h-1.6a.09.09,0,0,1-.07,0,.1.1,0,0,1,0-.07v-.7a.1.1,0,0,1,0-.07.09.09,0,0,1,.07,0h4.39A.09.09,0,0,1,150.82,71.49Z"/><path class="cls-1" d="M156.31,77.67l-1.19-2.59a.05.05,0,0,0-.05,0H154s-.05,0-.05,0v2.56a.09.09,0,0,1,0,.07.12.12,0,0,1-.08,0H153a.13.13,0,0,1-.07,0,.09.09,0,0,1,0-.07V71.56a.09.09,0,0,1,0-.07.11.11,0,0,1,.07,0h2.48a1.91,1.91,0,0,1,1,.23,1.57,1.57,0,0,1,.66.64,1.9,1.9,0,0,1,.23,1,1.69,1.69,0,0,1-.32,1.06,1.66,1.66,0,0,1-.88.61h0s0,0,0,0l1.27,2.62a.17.17,0,0,1,0,.05s0,.08-.1.08h-.87A.12.12,0,0,1,156.31,77.67Zm-2.37-5.27v1.79a0,0,0,0,0,.05,0h1.35A1,1,0,0,0,156,74a1,1,0,0,0,0-1.36.91.91,0,0,0-.69-.26H154S153.94,72.37,153.94,72.4Z"/><path class="cls-1" d="M163.73,72.32a.09.09,0,0,1-.08,0h-3.07s0,0,0,0v1.68s0,0,0,0h2.06a.1.1,0,0,1,.11.11v.68a.1.1,0,0,1-.11.11h-2.06s0,0,0,0v1.74s0,0,0,0h3.07a.11.11,0,0,1,.08,0,.09.09,0,0,1,0,.07v.69a.09.09,0,0,1,0,.07.12.12,0,0,1-.08,0H159.6a.1.1,0,0,1-.07,0,.08.08,0,0,1,0-.07V71.56a.08.08,0,0,1,0-.07.09.09,0,0,1,.07,0h4.05a.11.11,0,0,1,.08,0,.09.09,0,0,1,0,.07v.69A.09.09,0,0,1,163.73,72.32Z"/><path class="cls-1" d="M169.43,71.68a1.7,1.7,0,0,1,.67.66,2,2,0,0,1,.24,1,1.94,1.94,0,0,1-.24,1,1.66,1.66,0,0,1-.69.65,2.14,2.14,0,0,1-1,.23h-1.44a0,0,0,0,0-.05,0v2.42a.09.09,0,0,1,0,.07.1.1,0,0,1-.08,0H166a.12.12,0,0,1-.08,0,.09.09,0,0,1,0-.07v-6.1a.11.11,0,0,1,0-.07.11.11,0,0,1,.08,0h2.47A2.14,2.14,0,0,1,169.43,71.68ZM169,74.07a1.07,1.07,0,0,0,0-1.44,1,1,0,0,0-.74-.28h-1.34s-.05,0-.05,0v1.9a0,0,0,0,0,.05,0h1.34A1,1,0,0,0,169,74.07Z"/><path class="cls-1" d="M175.75,77.67l-1.19-2.59a.05.05,0,0,0-.05,0h-1.08s-.05,0-.05,0v2.56a.09.09,0,0,1,0,.07.12.12,0,0,1-.08,0h-.83a.1.1,0,0,1-.07,0,.09.09,0,0,1,0-.07V71.56a.1.1,0,0,1,.1-.1h2.48a1.91,1.91,0,0,1,1,.23,1.63,1.63,0,0,1,.66.64,1.9,1.9,0,0,1,.23,1,1.69,1.69,0,0,1-.32,1.06,1.66,1.66,0,0,1-.88.61h0s0,0,0,0l1.27,2.62a.17.17,0,0,1,0,.05s0,.08-.1.08h-.87A.12.12,0,0,1,175.75,77.67Zm-2.37-5.27v1.79a0,0,0,0,0,.05,0h1.35a1,1,0,0,0,.69-.26,1,1,0,0,0,0-1.36.91.91,0,0,0-.69-.26h-1.35S173.38,72.37,173.38,72.4Z"/><path class="cls-1" d="M183.17,72.32a.09.09,0,0,1-.08,0H180s0,0,0,0v1.68s0,0,0,0h2.06a.1.1,0,0,1,.11.11v.68a.1.1,0,0,1-.11.11H180s0,0,0,0v1.74s0,0,0,0h3.07a.11.11,0,0,1,.08,0,.09.09,0,0,1,0,.07v.69a.09.09,0,0,1,0,.07.12.12,0,0,1-.08,0H179a.1.1,0,0,1-.07,0,.08.08,0,0,1,0-.07V71.56a.08.08,0,0,1,0-.07.09.09,0,0,1,.07,0h4.05a.11.11,0,0,1,.08,0,.09.09,0,0,1,0,.07v.69A.09.09,0,0,1,183.17,72.32Z"/><path class="cls-1" d="M189,71.49a.09.09,0,0,1,.07,0h.83a.11.11,0,0,1,.08,0,.09.09,0,0,1,0,.07v6.09a.09.09,0,0,1,0,.07.12.12,0,0,1-.08,0h-.8a.14.14,0,0,1-.13-.08l-2.59-4.24s0,0,0,0,0,0,0,0l0,4.2a.08.08,0,0,1,0,.07.1.1,0,0,1-.07,0h-.83a.12.12,0,0,1-.08,0,.09.09,0,0,1,0-.07V71.56a.09.09,0,0,1,0-.07.11.11,0,0,1,.08,0h.8a.14.14,0,0,1,.13.07L189,75.78l0,0s0,0,0,0v-4.2A.08.08,0,0,1,189,71.49Z"/><path class="cls-1" d="M196.6,72.32a.09.09,0,0,1-.08,0h-3.07s0,0,0,0v1.68s0,0,0,0h2.06a.1.1,0,0,1,.11.11v.68a.1.1,0,0,1-.11.11h-2.06s0,0,0,0v1.74s0,0,0,0h3.07a.11.11,0,0,1,.08,0,.09.09,0,0,1,0,.07v.69a.09.09,0,0,1,0,.07.12.12,0,0,1-.08,0h-4.05a.12.12,0,0,1-.08,0,.09.09,0,0,1,0-.07V71.56a.09.09,0,0,1,0-.07.11.11,0,0,1,.08,0h4.05a.11.11,0,0,1,.08,0,.09.09,0,0,1,0,.07v.69A.09.09,0,0,1,196.6,72.32Z"/><path class="cls-1" d="M199.8,77.57a1.87,1.87,0,0,1-.8-.75,2.13,2.13,0,0,1-.28-1.11V71.56a.1.1,0,0,1,.1-.1h.83a.11.11,0,0,1,.08,0,.09.09,0,0,1,0,.07v4.17a1.17,1.17,0,0,0,.33.86,1.32,1.32,0,0,0,1.77,0,1.17,1.17,0,0,0,.33-.86V71.56a.09.09,0,0,1,0-.07.11.11,0,0,1,.08,0h.83a.1.1,0,0,1,.1.1v4.15a2.13,2.13,0,0,1-.28,1.11,1.85,1.85,0,0,1-.79.75,2.63,2.63,0,0,1-1.18.26A2.6,2.6,0,0,1,199.8,77.57Z"/><path class="cls-1" d="M209,77.67l-1.19-2.59a.06.06,0,0,0-.06,0h-1.08s0,0,0,0v2.56a.09.09,0,0,1,0,.07.12.12,0,0,1-.08,0h-.83a.1.1,0,0,1-.07,0s0,0,0-.07V71.56s0,0,0-.07a.09.09,0,0,1,.07,0h2.48a1.93,1.93,0,0,1,1,.23,1.63,1.63,0,0,1,.66.64,2,2,0,0,1,.23,1,1.75,1.75,0,0,1-.32,1.06,1.7,1.7,0,0,1-.88.61s0,0,0,0,0,0,0,0l1.27,2.62a.17.17,0,0,1,0,.05s0,.08-.1.08h-.87A.12.12,0,0,1,209,77.67Zm-2.37-5.27v1.79s0,0,0,0H208a1,1,0,0,0,.7-.26,1,1,0,0,0,0-1.36.94.94,0,0,0-.7-.26h-1.35S206.62,72.37,206.62,72.4Z"/><path class="cls-1" d="M213,77.6a1.85,1.85,0,0,1-.81-.63,1.69,1.69,0,0,1-.28-1v-.23a.09.09,0,0,1,0-.07.11.11,0,0,1,.08,0h.8a.11.11,0,0,1,.08,0,.09.09,0,0,1,0,.07V76a.81.81,0,0,0,.37.69,1.6,1.6,0,0,0,1,.28,1.22,1.22,0,0,0,.82-.24.72.72,0,0,0,.28-.6.64.64,0,0,0-.15-.43,1.61,1.61,0,0,0-.44-.32c-.19-.09-.47-.21-.85-.36a7.72,7.72,0,0,1-1-.44,1.8,1.8,0,0,1-.66-.56,1.43,1.43,0,0,1-.27-.89,1.51,1.51,0,0,1,.58-1.25,2.41,2.41,0,0,1,1.54-.46,2.81,2.81,0,0,1,1.19.24,1.85,1.85,0,0,1,.8.65,1.61,1.61,0,0,1,.29,1v.15a.1.1,0,0,1-.11.11h-.81a.09.09,0,0,1-.07,0,.11.11,0,0,1,0-.08v-.1a.89.89,0,0,0-.35-.71,1.42,1.42,0,0,0-1-.3,1.26,1.26,0,0,0-.77.21.77.77,0,0,0-.13,1,1.54,1.54,0,0,0,.43.31c.19.09.49.21.89.35a9.28,9.28,0,0,1,1,.44,2,2,0,0,1,.66.56,1.4,1.4,0,0,1,.28.88,1.57,1.57,0,0,1-.6,1.29,2.53,2.53,0,0,1-1.63.48A3.1,3.1,0,0,1,213,77.6Z"/><path class="cls-1" d="M222,71.49a.11.11,0,0,1,.08,0h.82a.11.11,0,0,1,.08,0,.09.09,0,0,1,0,.07v6.09a.09.09,0,0,1,0,.07.12.12,0,0,1-.08,0h-.82a.12.12,0,0,1-.08,0,.09.09,0,0,1,0-.07V75.07s0,0-.05,0h-2.29s0,0,0,0v2.58a.09.09,0,0,1,0,.07.1.1,0,0,1-.08,0h-.82a.12.12,0,0,1-.08,0,.09.09,0,0,1,0-.07V71.56a.09.09,0,0,1,0-.07.11.11,0,0,1,.08,0h.82a.1.1,0,0,1,.08,0,.09.09,0,0,1,0,.07v2.52a0,0,0,0,0,0,0H222a0,0,0,0,0,.05,0V71.56A.09.09,0,0,1,222,71.49Z"/><path class="cls-1" d="M225.41,77.72a.09.09,0,0,1,0-.07V71.56a.09.09,0,0,1,0-.07.11.11,0,0,1,.08,0h.83a.13.13,0,0,1,.08,0,.09.09,0,0,1,0,.07v6.09a.09.09,0,0,1,0,.07s-.05,0-.08,0h-.83A.12.12,0,0,1,225.41,77.72Z"/><path class="cls-1" d="M232.35,71.68a1.7,1.7,0,0,1,.67.66,2,2,0,0,1,.24,1,1.85,1.85,0,0,1-.25,1,1.64,1.64,0,0,1-.68.65,2.17,2.17,0,0,1-1,.23h-1.44a0,0,0,0,0-.05,0v2.42a.09.09,0,0,1,0,.07.12.12,0,0,1-.08,0h-.83a.1.1,0,0,1-.07,0,.09.09,0,0,1,0-.07v-6.1a.11.11,0,0,1,0-.07.09.09,0,0,1,.07,0h2.48A2.14,2.14,0,0,1,232.35,71.68Zm-.42,2.39a1.07,1.07,0,0,0,0-1.44,1,1,0,0,0-.73-.28h-1.34s-.05,0-.05,0v1.9a0,0,0,0,0,.05,0h1.34A1,1,0,0,0,231.93,74.07Z"/></svg>